<svg width="16" height="16" viewBox="0 0 16 16" fill="none" xmlns="http://www.w3.org/2000/svg">
<path d="M4.32757 1.41146C3.81918 2.44475 3.55029 3.58636 3.55029 4.75986C3.55029 8.95861 6.95712 12.3744 11.1448 12.3744C12.3765 12.3744 13.5667 12.0801 14.6333 11.5247C13.3428 13.853 10.8831 15.3581 8.11374 15.3581C3.99265 15.3581 0.640432 11.9971 0.640432 7.86514C0.640432 5.16247 2.08636 2.73 4.32757 1.41146ZM6.073 0.000244141C2.58154 0.908357 0 4.08043 0 7.86514C0 12.3576 3.63312 15.9996 8.11374 15.9996C11.9473 15.9996 15.1519 13.3307 16 9.74756C14.7473 10.9746 13.0355 11.7323 11.1454 11.7323C7.30465 11.7323 4.19072 8.61017 4.19072 4.75926C4.19072 2.91716 4.90798 1.24657 6.073 0.000244141Z" fill="#000000"/>
</svg>
